<svg class="svg-icon" style="width:1.443359375em;height:1em;vertical-align:middle;fill:currentColor;overflow:hidden" viewBox="0 0 1478 1024" xmlns="http://www.w3.org/2000/svg"><path d="M17.67 298.113c-23.45 23.444-23.45 61.383 0 84.833 23.457 23.444 61.402 23.444 84.852 0 350.859-350.761 921.646-350.761 1272.499 0 23.45 23.444 61.395 23.444 84.852 0 23.45-23.45 23.45-61.389 0-84.833-397.668-397.46-1044.535-397.46-1442.203 0ZM581.162 872.07c0 83.906 68.043 151.93 151.975 151.93 83.939 0 151.976-68.024 151.976-151.93 0-83.913-68.037-151.937-151.976-151.937-83.932 0-151.975 68.024-151.975 151.937Zm604.028-384.69c-128.305 0-232.363 104.007-232.363 232.299s104.045 232.299 232.363 232.299c128.331 0 232.357-103.987 232.357-232.3 0-128.266-104.026-232.298-232.357-232.298Zm135.848 324.227a30.795 30.795 0 0 1 9.11 21.94c0 17.172-13.886 31.058-31.057 31.058a30.918 30.918 0 0 1-21.947-9.117l-91.96-91.883-91.896 91.915c-5.657 5.638-13.42 9.11-22.005 9.11-17.126 0-31.045-13.885-31.045-31.063 0-8.586 3.473-16.303 9.085-21.921l91.954-91.974-91.935-91.902a30.974 30.974 0 0 1-9.084-21.973c0-17.145 13.912-31.05 31.064-31.05 8.56 0 16.322 3.46 21.953 9.084l91.902 91.922 91.954-91.902a31.024 31.024 0 0 1 21.947-9.085c17.139 0 31.064 13.886 31.064 31.057 0 8.58-3.473 16.349-9.117 21.967l-91.896 91.876 91.909 91.941ZM1173.643 404.99c17.593 0 34.816 1.581 51.54 4.594-305.954-244.338-754.592-224.95-1037.808 58.189-23.45 23.443-23.45 61.382 0 84.826 23.456 23.444 61.402 23.444 84.852 0C481.244 343.64 796.613 304.419 1045.57 434.92c38.587-19.147 82.066-29.93 128.072-29.93ZM940.068 518.27c-194.606-77.861-425.726-38.154-583.08 119.155-23.456 23.45-23.456 61.383 0 84.833 23.45 23.444 61.396 23.444 84.846 0 121.19-121.152 298.632-152.592 449.079-94.371 8.352-40.408 25.426-77.627 49.155-109.618Z"/></svg>